<?xml version="1.0" standalone="no"?>
<!DOCTYPE svg PUBLIC "-//W3C//DTD SVG 20010904//EN"
 "http://www.w3.org/TR/2001/REC-SVG-20010904/DTD/svg10.dtd">
<svg version="1.0" xmlns="http://www.w3.org/2000/svg"
 width="500.000000pt" height="500.000000pt" viewBox="0 0 500.000000 500.000000"
 preserveAspectRatio="xMidYMid meet">
<metadata>
Created by potrace 1.16, written by Peter Selinger 2001-2019
</metadata>
<g transform="translate(0.000000,500.000000) scale(0.100000,-0.100000)"
fill="lightgray" stroke="none">
<path d="M2429 4101 c-23 -23 -29 -38 -29 -72 0 -35 6 -47 35 -75 l35 -33 0
-173 0 -174 -98 -11 c-235 -28 -456 -136 -624 -304 -173 -172 -287 -412 -305
-641 l-6 -78 -183 0 c-183 0 -184 0 -199 24 -35 54 -126 59 -165 9 -24 -31
-27 -94 -4 -128 19 -29 72 -48 108 -39 14 3 37 19 50 35 l25 29 184 0 184 0 6
-77 c21 -259 161 -522 374 -701 168 -141 361 -221 596 -247 l57 -6 0 -180 0
-180 -35 -33 c-29 -28 -35 -40 -35 -75 0 -92 106 -136 171 -72 23 23 29 38 29
72 0 35 -6 47 -35 75 l-35 33 0 180 0 180 58 6 c289 32 529 154 712 360 141
160 239 383 258 590 l7 77 183 -2 184 -1 24 -28 c41 -50 124 -47 158 4 23 34
20 97 -4 128 -39 50 -130 45 -165 -9 -15 -24 -16 -24 -200 -24 l-185 0 0 48
c0 26 -9 88 -19 137 -51 248 -197 478 -396 627 -153 115 -333 189 -517 211
l-98 11 0 174 0 173 35 33 c29 28 35 40 35 75 0 60 -41 101 -100 101 -33 0
-48 -6 -71 -29z m159 -601 c245 -26 435 -114 605 -279 134 -130 226 -286 275
-471 33 -124 37 -331 8 -455 -106 -460 -507 -784 -972 -785 -466 0 -863 312
-976 767 -31 126 -31 333 0 456 49 195 142 356 284 493 181 174 389 262 668
283 8 0 57 -4 108 -9z"/>
<path d="M2410 3377 c-75 -26 -120 -84 -120 -155 0 -42 -1 -43 -55 -67 l-56
-24 -44 34 c-90 69 -177 54 -271 -46 -85 -91 -94 -169 -28 -254 l33 -44 -24
-56 c-24 -54 -26 -55 -65 -55 -55 0 -113 -32 -141 -77 -21 -33 -24 -51 -24
-133 0 -82 3 -100 24 -133 28 -45 86 -77 141 -77 39 0 41 -1 65 -55 l24 -56
-34 -45 c-69 -89 -57 -164 39 -260 96 -97 171 -108 261 -39 l45 35 55 -25 c54
-23 55 -25 55 -66 0 -53 34 -113 80 -142 30 -19 49 -22 130 -22 82 0 100 3
133 24 45 28 77 86 77 141 0 39 1 41 55 65 l56 24 45 -34 c89 -69 164 -57 260
39 96 96 108 171 39 260 l-34 45 24 56 c24 54 26 55 65 55 55 0 113 32 141 77
21 33 24 51 24 133 0 82 -3 100 -24 133 -28 45 -86 77 -141 77 -39 0 -41 1
-65 55 l-24 56 34 45 c65 85 57 161 -28 252 -95 101 -181 116 -272 47 l-44
-34 -56 24 c-54 24 -55 26 -55 66 0 53 -34 114 -79 141 -41 26 -166 34 -221
15z m203 -97 c20 -23 27 -41 27 -71 0 -67 20 -91 98 -122 91 -35 114 -34 159
7 47 41 72 50 109 36 35 -13 100 -75 120 -113 18 -34 11 -78 -18 -103 -25 -24
-48 -67 -48 -92 0 -11 14 -51 31 -90 34 -76 54 -92 119 -92 30 0 48 -7 72 -29
32 -29 33 -31 32 -112 0 -79 -2 -83 -32 -110 -24 -22 -43 -29 -72 -29 -65 0
-85 -16 -119 -92 -17 -39 -31 -82 -31 -96 0 -14 15 -43 34 -66 42 -51 49 -76
36 -112 -15 -40 -87 -112 -126 -124 -38 -13 -66 -3 -113 39 -47 43 -84 40
-207 -21 -28 -13 -44 -49 -44 -96 0 -78 -57 -117 -159 -108 -58 4 -70 9 -93
36 -21 22 -28 41 -28 70 0 49 -16 85 -44 98 -63 31 -122 52 -145 52 -15 0 -41
-14 -61 -31 -48 -42 -76 -52 -114 -39 -39 12 -111 84 -126 124 -13 37 -5 61
36 110 42 49 43 74 3 164 -34 76 -54 92 -119 92 -30 0 -48 7 -72 29 -32 28
-32 31 -33 111 0 80 1 82 33 111 24 22 42 29 72 29 49 0 85 16 98 44 31 62 52
121 52 144 0 14 -15 43 -34 66 -58 72 -56 102 11 177 68 76 122 82 189 23 44
-38 73 -42 130 -18 110 45 124 61 124 133 0 77 57 113 165 105 51 -4 64 -9 88
-34z"/>
<path d="M2371 2964 c-99 -26 -189 -89 -269 -186 -19 -24 -29 -28 -75 -28 -29
0 -58 -5 -65 -12 -14 -14 -17 -455 -3 -477 6 -10 27 -14 68 -12 l58 1 43 -55
c140 -182 427 -230 627 -104 60 37 109 83 136 125 17 29 24 31 77 33 41 1 61
6 70 18 15 21 17 434 2 464 -9 15 -22 19 -63 19 -60 0 -60 0 -109 62 -49 61
-144 123 -225 148 -77 24 -192 26 -272 4z m240 -70 c30 -9 70 -26 89 -37 50
-31 111 -88 104 -98 -7 -11 -601 -12 -608 -1 -7 12 61 76 108 102 88 49 211
62 307 34z m-311 -279 l0 -35 -74 0 c-54 0 -75 -4 -79 -14 -9 -22 2 -26 75
-26 l69 0 -3 -32 -3 -33 -66 -3 c-56 -2 -68 -6 -72 -22 -3 -10 -2 -21 1 -24 3
-3 38 -6 79 -6 l73 0 0 -35 0 -35 -125 0 -125 0 0 150 0 150 125 0 125 0 0
-35z m315 10 c34 -33 34 -87 -1 -122 -22 -22 -23 -27 -11 -42 19 -23 57 -90
57 -102 0 -6 -22 -9 -52 -7 -52 3 -53 3 -83 57 -42 76 -55 77 -55 2 l0 -61
-50 0 -50 0 0 150 0 150 110 0 c104 0 112 -1 135 -25z m322 1 c23 -20 28 -32
28 -70 0 -63 -26 -88 -99 -94 l-56 -4 0 -54 0 -54 -50 0 -50 0 0 150 0 150 99
0 c91 0 102 -2 128 -24z m-139 -385 c8 -5 0 -18 -26 -42 -52 -50 -98 -76 -167
-94 -80 -20 -150 -19 -229 5 -78 24 -184 100 -186 133 0 10 592 8 608 -2z"/>
<path d="M2230 3759 c-257 -69 -430 -159 -592 -308 l-76 -71 -56 51 c-54 49
-56 53 -56 101 0 42 -5 54 -30 80 -28 28 -36 30 -78 25 -89 -10 -124 -101 -64
-168 24 -27 34 -31 77 -30 47 0 53 -4 103 -52 28 -28 52 -55 52 -59 0 -4 -24
-41 -54 -82 -97 -135 -189 -351 -212 -498 -7 -38 -7 -38 28 -38 35 0 35 0 48
62 16 86 54 187 108 293 160 311 477 555 815 625 56 11 57 12 57 46 0 37 -7
40 -70 23z"/>
<path d="M2700 3736 c0 -34 1 -35 58 -46 75 -16 212 -65 287 -103 229 -115
424 -314 540 -552 50 -102 105 -262 105 -306 0 -15 7 -19 36 -19 l37 0 -7 43
c-22 143 -124 377 -221 505 -30 40 -55 77 -55 81 0 4 24 28 53 53 44 38 57 44
85 40 43 -6 84 13 105 47 21 36 21 63 2 101 -19 37 -43 50 -90 50 -20 0 -45
-5 -56 -10 -29 -16 -52 -68 -45 -104 4 -28 -1 -36 -50 -80 l-55 -48 -57 54
c-149 142 -339 245 -554 303 -51 14 -99 25 -105 25 -8 0 -13 -14 -13 -34z"/>
<path d="M1240 2291 c0 -10 11 -63 25 -117 40 -154 151 -370 245 -478 l29 -33
-64 -63 c-61 -61 -67 -64 -108 -61 -96 5 -142 -105 -72 -175 27 -27 77 -32
119 -13 32 15 59 71 51 107 -5 23 3 36 58 90 l63 63 20 -22 c30 -34 172 -142
241 -183 116 -69 278 -131 401 -154 l52 -9 0 33 c0 31 -3 34 -42 44 -265 67
-447 167 -618 340 -163 163 -278 374 -321 588 -13 61 -14 62 -46 62 -26 0 -33
-4 -33 -19z"/>
<path d="M3685 2263 c-9 -63 -60 -214 -97 -288 -54 -107 -139 -226 -227 -315
-171 -173 -352 -273 -618 -340 -40 -10 -43 -13 -43 -44 l0 -33 53 9 c88 16
257 76 347 125 88 47 191 120 270 191 l45 40 70 -66 c67 -65 69 -69 70 -115 0
-41 5 -53 28 -73 39 -33 73 -40 113 -21 67 32 81 118 28 168 -20 18 -37 24
-74 24 -46 0 -51 3 -119 69 l-71 68 29 34 c71 80 173 259 215 374 24 68 56
192 56 217 0 19 -5 23 -34 23 -33 0 -34 -2 -41 -47z"/>
</g>
</svg>
